<svg id="Capa_1" data-name="Capa 1" xmlns="http://www.w3.org/2000/svg" viewBox="0 0 300 300"><defs><style>.cls-1{fill:#00a9aa;}.cls-2{fill:#5553a0;}.cls-3{fill:#fff;}</style></defs><path class="cls-1" d="M19,274.88V24.94H136.31c25,0,45.31,20.09,45.31,44.77v30.58H232.5c26.72,0,48.46,21.47,48.46,47.87v57.12h-56.4v51.07A18.53,18.53,0,0,1,206,274.88Z"/><path class="cls-2" d="M19.18,43.92H127.05c19.83,0,35.91,15.84,35.91,35.37v40h60.28c21.58,0,39.07,17.22,39.07,38.46v47.73H205.9v69.6H19.18Z"/><path class="cls-3" d="M42.63,102.1q5.28,0,7.68-1.79a5.9,5.9,0,0,0,2.41-5,6.42,6.42,0,0,0-.82-3.33,8.57,8.57,0,0,0-2.32-2.52,19.72,19.72,0,0,0-3.69-2.1c-1.45-.64-3.1-1.28-5-1.9S37.27,84,35.54,83.21a18.18,18.18,0,0,1-4.58-3A13,13,0,0,1,26.58,70q0-7.29,5-11.44T45.35,54.4a32.91,32.91,0,0,1,9,1.12A27.35,27.35,0,0,1,60.47,58l-3,7.91a23.48,23.48,0,0,0-5.78-2.25,26.74,26.74,0,0,0-6.48-.78A10.25,10.25,0,0,0,39,64.48a5.37,5.37,0,0,0-2.21,4.58,5.93,5.93,0,0,0,.74,3.06,7.5,7.5,0,0,0,2.09,2.29,18.26,18.26,0,0,0,3.18,1.86c1.21.57,2.54,1.11,4,1.63q3.81,1.39,6.79,2.83a19.21,19.21,0,0,1,5,3.41,13.28,13.28,0,0,1,3.14,4.66,17.07,17.07,0,0,1,1.09,6.47q0,7.29-5.16,11.29t-15.09,4a40,40,0,0,1-11-1.47A34.28,34.28,0,0,1,28,107.8a23.77,23.77,0,0,1-2.49-1.2l2.87-8A33.37,33.37,0,0,0,34,100.93,27.72,27.72,0,0,0,42.63,102.1Z"/><path class="cls-3" d="M84.52,67.82A22.84,22.84,0,0,1,92.35,69a12.54,12.54,0,0,1,5.08,3.26,12.09,12.09,0,0,1,2.71,5.08,24.52,24.52,0,0,1,.82,6.55v24.59q-2.17.47-6.56,1.12a66.73,66.73,0,0,1-9.88.66,29.31,29.31,0,0,1-6.67-.7,13.81,13.81,0,0,1-5.16-2.25,10.55,10.55,0,0,1-3.34-4,14,14,0,0,1-1.2-6.13,11.77,11.77,0,0,1,1.36-5.89,11.14,11.14,0,0,1,3.68-3.92,15.93,15.93,0,0,1,5.39-2.17,30.33,30.33,0,0,1,6.4-.66,28.91,28.91,0,0,1,3.26.2,30.55,30.55,0,0,1,3.64.65V83.79a12.54,12.54,0,0,0-.38-3.1,6.56,6.56,0,0,0-1.36-2.6,6.33,6.33,0,0,0-2.56-1.74,11,11,0,0,0-4-.62,35.49,35.49,0,0,0-6,.46,26.59,26.59,0,0,0-4.42,1.09L72,69.68a37,37,0,0,1,5.19-1.24A40.28,40.28,0,0,1,84.52,67.82Zm.77,35a34.8,34.8,0,0,0,6.59-.47V91.94a17.54,17.54,0,0,0-2.25-.47,21.5,21.5,0,0,0-3.25-.23,22.22,22.22,0,0,0-3.14.23,10,10,0,0,0-2.87.85,5.25,5.25,0,0,0-2.06,1.75,4.84,4.84,0,0,0-.77,2.83c0,2.22.69,3.76,2.09,4.62A10.83,10.83,0,0,0,85.29,102.8Z"/><path class="cls-3" d="M112.44,70.14a65.32,65.32,0,0,1,7-1.47,60.33,60.33,0,0,1,9.62-.7,22.2,22.2,0,0,1,8.3,1.36,12.91,12.91,0,0,1,5.31,3.8A14.45,14.45,0,0,1,145.51,79a32.65,32.65,0,0,1,.82,7.57v22.8h-9.39V88.06a31.38,31.38,0,0,0-.42-5.55,9.9,9.9,0,0,0-1.4-3.72,5.59,5.59,0,0,0-2.64-2.09,11.09,11.09,0,0,0-4.07-.66,32.27,32.27,0,0,0-3.72.23c-1.29.16-2.25.29-2.87.39v32.73h-9.38Z"/><path class="cls-3" d="M44.42,132.65q11.63,0,17.8,4.27t6.16,13q0,10.94-10.78,14.81c1,1.19,2.1,2.64,3.34,4.35s2.51,3.55,3.8,5.54,2.53,4,3.72,6.13,2.25,4.15,3.18,6.16H60.71q-1.49-2.79-3.18-5.62c-1.14-1.89-2.29-3.72-3.46-5.51s-2.31-3.46-3.45-5-2.2-3-3.18-4.22c-.72,0-1.34.07-1.86.07h-6.2v20.32H29.61V134a53,53,0,0,1,7.6-1C39.89,132.75,42.3,132.65,44.42,132.65Zm.7,8.46c-2.07,0-4,.08-5.74.23v17.37h4.26a44.9,44.9,0,0,0,6.29-.38,13.28,13.28,0,0,0,4.53-1.4,6.86,6.86,0,0,0,2.76-2.71,9,9,0,0,0,.93-4.35,8.68,8.68,0,0,0-.93-4.19A7,7,0,0,0,54.54,143a12.84,12.84,0,0,0-4.15-1.44A30.68,30.68,0,0,0,45.12,141.11Z"/><path class="cls-3" d="M115.46,166.62a26,26,0,0,1-1.4,8.77,19.38,19.38,0,0,1-4,6.75,17.74,17.74,0,0,1-6.17,4.34A20,20,0,0,1,96,188a19.72,19.72,0,0,1-7.91-1.55A17.73,17.73,0,0,1,82,182.14a20,20,0,0,1-4-6.75,25.49,25.49,0,0,1-1.43-8.77A25.12,25.12,0,0,1,78,157.9a19.7,19.7,0,0,1,4-6.71,17.8,17.8,0,0,1,6.17-4.3A19.84,19.84,0,0,1,96,145.37a20.16,20.16,0,0,1,7.88,1.52,17.22,17.22,0,0,1,6.16,4.3,20,20,0,0,1,4,6.71A25.36,25.36,0,0,1,115.46,166.62Zm-9.62,0q0-6-2.59-9.57a9.22,9.22,0,0,0-14.51,0q-2.59,3.52-2.6,9.57t2.6,9.7a9.16,9.16,0,0,0,14.51,0Q105.85,172.75,105.84,166.62Z"/><path class="cls-3" d="M122.91,166.7a25.12,25.12,0,0,1,1.43-8.72,18.68,18.68,0,0,1,4.11-6.67,18.27,18.27,0,0,1,6.48-4.27,23.07,23.07,0,0,1,8.61-1.51,54.2,54.2,0,0,1,9,.7,62.52,62.52,0,0,1,6.9,1.47v53.59h-9.38V185.55a22.5,22.5,0,0,1-4,1.55,20.15,20.15,0,0,1-12.92-.81,15.1,15.1,0,0,1-5.58-4.31,19.8,19.8,0,0,1-3.45-6.67A29,29,0,0,1,122.91,166.7Zm9.61.16c0,3.93.79,7,2.37,9.38s4.07,3.49,7.48,3.49a12.67,12.67,0,0,0,4.38-.74,14.53,14.53,0,0,0,3.3-1.59V154.22a24.89,24.89,0,0,0-2.52-.43,31.93,31.93,0,0,0-3.92-.19,10,10,0,0,0-8.14,3.52Q132.51,160.66,132.52,166.86Z"/><path class="cls-3" d="M204.65,185.7q-2.72.7-7.06,1.44a57.22,57.22,0,0,1-9.54.74,21.06,21.06,0,0,1-8.18-1.4,13.06,13.06,0,0,1-5.27-3.88,15.07,15.07,0,0,1-2.83-5.93,31.4,31.4,0,0,1-.86-7.56V146.38h9.39v21.25q0,6.52,1.9,9.31t6.63,2.79q1.71,0,3.6-.15a20.82,20.82,0,0,0,2.84-.39V146.38h9.38Z"/><path class="cls-3" d="M214.34,166.86a25.51,25.51,0,0,1,1.59-9.39,19.83,19.83,0,0,1,4.23-6.71,17.59,17.59,0,0,1,6.05-4,18.81,18.81,0,0,1,7-1.36q8.37,0,13.07,5.2T251,166.08c0,.52,0,1.1,0,1.75s-.06,1.23-.11,1.74H224a10.7,10.7,0,0,0,3.45,7.56q3.06,2.69,8.88,2.68a29.39,29.39,0,0,0,6.24-.62,24.77,24.77,0,0,0,4.46-1.32l1.24,7.68a13.82,13.82,0,0,1-2.13.81,27.94,27.94,0,0,1-3.1.78c-1.16.23-2.42.42-3.76.58a34.9,34.9,0,0,1-4.11.23,24.89,24.89,0,0,1-9.31-1.59,17.2,17.2,0,0,1-6.51-4.42,18.06,18.06,0,0,1-3.81-6.67A27.43,27.43,0,0,1,214.34,166.86Zm27.23-4.19A12.05,12.05,0,0,0,241,159a8.76,8.76,0,0,0-1.59-3,7.58,7.58,0,0,0-2.56-2,8.14,8.14,0,0,0-3.6-.73,8.41,8.41,0,0,0-3.8.81,8.73,8.73,0,0,0-2.76,2.13,9.67,9.67,0,0,0-1.74,3,16.31,16.31,0,0,0-.85,3.49Z"/><path class="cls-3" d="M29.61,264.5V210.75h34v8.3H39.38v13.73H60.86v8.3H39.38V264.5Z"/><path class="cls-3" d="M93.05,232.39a29,29,0,0,0-3.22-.81,23.25,23.25,0,0,0-4.77-.43,19.6,19.6,0,0,0-3.3.31,21.5,21.5,0,0,0-2.44.54v32.5H69.93V225.88a51.5,51.5,0,0,1,6.79-1.9,42,42,0,0,1,9-.89c.62,0,1.34,0,2.17.11s1.65.18,2.48.31,1.63.29,2.4.47,1.4.35,1.87.5Z"/><path class="cls-3" d="M134.46,263.26c-1.81.47-4.16.94-7.06,1.44a57.23,57.23,0,0,1-9.53.73,21.09,21.09,0,0,1-8.19-1.39,13.25,13.25,0,0,1-5.27-3.88,15.25,15.25,0,0,1-2.83-5.94,31.35,31.35,0,0,1-.85-7.56V223.94h9.38v21.25c0,4.34.63,7.45,1.9,9.31s3.48,2.79,6.63,2.79c1.14,0,2.34-.05,3.61-.16a19.65,19.65,0,0,0,2.83-.38V223.94h9.38Z"/><path class="cls-3" d="M155.87,264.5h-9.39V223.94h9.39Z"/><path class="cls-3" d="M167.34,213.24l9.39-1.56v12.26h14.43v7.83H176.73v16.52q0,4.89,1.55,7t5.28,2.1a16.83,16.83,0,0,0,4.53-.55,29.92,29.92,0,0,0,3.14-1l1.55,7.44a35.21,35.21,0,0,1-4.26,1.44,23.31,23.31,0,0,1-6.21.73,19.77,19.77,0,0,1-7.25-1.16,10.62,10.62,0,0,1-4.61-3.38,13.34,13.34,0,0,1-2.41-5.35,33.5,33.5,0,0,1-.7-7.17Z"/><path class="cls-3" d="M151.28,222.25s-1.94-8.81,10.64-14.3C161.92,208,164.05,216.69,151.28,222.25Z"/></svg>